{
  "accessors": [
    {
      "bufferView": 2,
      "componentType": 5126,
      "count": 3282,
      "max": [
        122.43516540527344,
        360.35086059570312,
        60.8404541015625
      ],
      "min": [
        -75.038238525390625,
        0.89345455169677734,
        -49.16192626953125
      ],
      "type": "VEC3"
    },
    {
      "bufferView": 2,
      "byteOffset": 39384,
      "componentType": 5126,
      "count": 3282,
      "max": [
        0.9986070990562439,
        0.99739694595336914,
        0.99804800748825073
      ],
      "min": [
        -0.99973249435424805,
        -0.9999956488609314,
        -0.99986493587493896
      ],
      "type": "VEC3"
    },
    {
      "bufferView": 3,
      "componentType": 5126,
      "count": 3282,
      "max": [
        1,
        1,
        0.99999970197677612,
        1
      ],
      "min": [
        -0.85401558876037598,
        -0.97901701927185059,
        -0.99928659200668335,
        1
      ],
      "type": "VEC4"
    },
    {
      "bufferView": 1,
      "componentType": 5126,
      "count": 3282,
      "max": [
        0.99590373039245605,
        0.99051350355148315
      ],
      "min": [
        0.0040962696075439453,
        0.010807931423187256
      ],
      "type": "VEC2"
    },
    {
      "bufferView": 0,
      "componentType": 5125,
      "count": 3282,
      "max": [
        3281
      ],
      "min": [
        0
      ],
      "type": "SCALAR"
    }
  ],
  "asset": {
    "extras": {
      "author": "jrby1015 (https://sketchfab.com/jrby1015)",
      "license": "CC-BY-4.0 (http://creativecommons.org/licenses/by/4.0/)",
      "source": "https://sketchfab.com/models/07584b49fd654cb99751e040ada05f5b",
      "title": "Archangel"
    },
    "generator": "Sketchfab-3.20.7",
    "version": "2.0"
  },
  "bufferViews": [
    {
      "buffer": 0,
      "byteLength": 13128,
      "byteOffset": 0,
      "name": "floatBufferViews",
      "target": 34963
    },
    {
      "buffer": 0,
      "byteLength": 26256,
      "byteOffset": 13128,
      "byteStride": 8,
      "name": "floatBufferViews",
      "target": 34962
    },
    {
      "buffer": 0,
      "byteLength": 78768,
      "byteOffset": 39384,
      "byteStride": 12,
      "name": "floatBufferViews",
      "target": 34962
    },
    {
      "buffer": 0,
      "byteLength": 52512,
      "byteOffset": 118152,
      "byteStride": 16,
      "name": "floatBufferViews",
      "target": 34962
    }
  ],
  "buffers": [
    {
      "byteLength": 170664,
      "uri": "scene.bin"
    }
  ],
  "images": [
    {
      "uri": "textures/Archangel_normal.jpg"
    },
    {
      "uri": "textures/Archangel_diffuse.jpg"
    }
  ],
  "materials": [
    {
      "doubleSided": true,
      "emissiveFactor": [
        0,
        0,
        0
      ],
      "name": "Archangel_reduced_final",
      "normalTexture": {
        "index": 0,
        "scale": 1,
        "texCoord": 0
      },
      "pbrMetallicRoughness": {
        "baseColorFactor": [
          1,
          1,
          1,
          1
        ],
        "baseColorTexture": {
          "index": 1,
          "texCoord": 0
        },
        "metallicFactor": 0,
        "roughnessFactor": 0.59999999999999998
      }
    }
  ],
  "meshes": [
    {
      "name": "Archangel_reduced_Archangel_reduced_final_0",
      "primitives": [
        {
          "attributes": {
            "NORMAL": 1,
            "POSITION": 0,
            "TANGENT": 2,
            "TEXCOORD_0": 3
          },
          "indices": 4,
          "material": 0,
          "mode": 4
        }
      ]
    }
  ],
  "nodes": [
    {
      "children": [
        1
      ],
      "name": "RootNode (gltf orientation matrix)",
      "rotation": [
        -0.70710678118654746,
        -0,
        -0,
        0.70710678118654757
      ]
    },
    {
      "children": [
        2
      ],
      "name": "RootNode (model correction matrix)"
    },
    {
      "children": [
        3
      ],
      "matrix": [
        1,
        0,
        0,
        0,
        0,
        0,
        1,
        0,
        0,
        -1,
        0,
        0,
        0,
        0,
        0,
        1
      ],
      "name": "e23d1d17a8fe49009c2f1347acb6f8e0.fbx"
    },
    {
      "children": [
        4
      ],
      "name": "RootNode"
    },
    {
      "children": [
        5
      ],
      "name": "Archangel_reduced"
    },
    {
      "mesh": 0,
      "name": "Archangel_reduced_Archangel_reduced_final_0"
    }
  ],
  "samplers": [
    {
      "magFilter": 9729,
      "minFilter": 9987,
      "wrapS": 10497,
      "wrapT": 10497
    }
  ],
  "scene": 0,
  "scenes": [
    {
      "name": "OSG_Scene",
      "nodes": [
        0
      ]
    }
  ],
  "textures": [
    {
      "sampler": 0,
      "source": 0
    },
    {
      "sampler": 0,
      "source": 1
    }
  ]
}

