{
  "accessors": [
    {
      "bufferView": 2,
      "componentType": 5126,
      "count": 33,
      "max": [
        875.54388427734375,
        -1.114959716796875,
        875.54388427734375
      ],
      "min": [
        -875.54388427734375,
        -1.114959716796875,
        -875.54388427734375
      ],
      "type": "VEC3"
    },
    {
      "bufferView": 2,
      "byteOffset": 396,
      "componentType": 5126,
      "count": 33,
      "max": [
        0,
        1,
        1.5581581858103988e-10
      ],
      "min": [
        0,
        1,
        -1.5581584633661549e-10
      ],
      "type": "VEC3"
    },
    {
      "bufferView": 3,
      "componentType": 5126,
      "count": 33,
      "max": [
        1,
        5.4680274775727912e-17,
        3.509288433178881e-07,
        1
      ],
      "min": [
        1,
        -1.7389741917085946e-17,
        -3.4355178968326072e-07,
        1
      ],
      "type": "VEC4"
    },
    {
      "bufferView": 1,
      "componentType": 5126,
      "count": 33,
      "max": [
        0.98901098966598511,
        0.98901098966598511
      ],
      "min": [
        0.010989010334014893,
        0.010989010334014893
      ],
      "type": "VEC2"
    },
    {
      "bufferView": 0,
      "componentType": 5125,
      "count": 144,
      "max": [
        32
      ],
      "min": [
        0
      ],
      "type": "SCALAR"
    }
  ],
  "asset": {
    "extras": {
      "author": "jrby1015 (https://sketchfab.com/jrby1015)",
      "license": "CC-BY-4.0 (http://creativecommons.org/licenses/by/4.0/)",
      "source": "https://sketchfab.com/models/cadfb77c572d468ea3d89a50f7ab2804",
      "title": "Floor"
    },
    "generator": "Sketchfab-3.20.7",
    "version": "2.0"
  },
  "bufferViews": [
    {
      "buffer": 0,
      "byteLength": 576,
      "byteOffset": 0,
      "name": "floatBufferViews",
      "target": 34963
    },
    {
      "buffer": 0,
      "byteLength": 264,
      "byteOffset": 576,
      "byteStride": 8,
      "name": "floatBufferViews",
      "target": 34962
    },
    {
      "buffer": 0,
      "byteLength": 792,
      "byteOffset": 840,
      "byteStride": 12,
      "name": "floatBufferViews",
      "target": 34962
    },
    {
      "buffer": 0,
      "byteLength": 528,
      "byteOffset": 1632,
      "byteStride": 16,
      "name": "floatBufferViews",
      "target": 34962
    }
  ],
  "buffers": [
    {
      "byteLength": 2160,
      "uri": "scene.bin"
    }
  ],
  "images": [
    {
      "uri": "textures/Floor_normal.jpg"
    },
    {
      "uri": "textures/Floor_diffuse.jpg"
    }
  ],
  "materials": [
    {
      "doubleSided": true,
      "emissiveFactor": [
        0,
        0,
        0
      ],
      "name": "Floor",
      "normalTexture": {
        "index": 0,
        "scale": 1,
        "texCoord": 0
      },
      "pbrMetallicRoughness": {
        "baseColorFactor": [
          1,
          1,
          1,
          1
        ],
        "baseColorTexture": {
          "index": 1,
          "texCoord": 0
        },
        "metallicFactor": 0,
        "roughnessFactor": 0.59999999999999998
      }
    }
  ],
  "meshes": [
    {
      "name": "floor_Floor_0",
      "primitives": [
        {
          "attributes": {
            "NORMAL": 1,
            "POSITION": 0,
            "TANGENT": 2,
            "TEXCOORD_0": 3
          },
          "indices": 4,
          "material": 0,
          "mode": 4
        }
      ]
    }
  ],
  "nodes": [
    {
      "children": [
        1
      ],
      "name": "RootNode (gltf orientation matrix)",
      "rotation": [
        -0.70710678118654746,
        -0,
        -0,
        0.70710678118654757
      ]
    },
    {
      "children": [
        2
      ],
      "name": "RootNode (model correction matrix)"
    },
    {
      "children": [
        3
      ],
      "matrix": [
        1,
        0,
        0,
        0,
        0,
        0,
        1,
        0,
        0,
        -1,
        0,
        0,
        0,
        0,
        0,
        1
      ],
      "name": "bdfdb0300b5a4792967c97b63f2bcb43.fbx"
    },
    {
      "children": [
        4
      ],
      "name": "RootNode"
    },
    {
      "children": [
        5
      ],
      "name": "floor"
    },
    {
      "mesh": 0,
      "name": "floor_Floor_0"
    }
  ],
  "samplers": [
    {
      "magFilter": 9729,
      "minFilter": 9987,
      "wrapS": 10497,
      "wrapT": 10497
    }
  ],
  "scene": 0,
  "scenes": [
    {
      "name": "OSG_Scene",
      "nodes": [
        0
      ]
    }
  ],
  "textures": [
    {
      "sampler": 0,
      "source": 0
    },
    {
      "sampler": 0,
      "source": 1
    }
  ]
}

