{
  "accessors": [
    {
      "bufferView": 2,
      "componentType": 5126,
      "count": 2034,
      "max": [
        207.735595703125,
        158.28543090820312,
        -677.49761962890625
      ],
      "min": [
        77.874305725097656,
        52.982151031494141,
        -787.2921142578125
      ],
      "type": "VEC3"
    },
    {
      "bufferView": 2,
      "byteOffset": 24408,
      "componentType": 5126,
      "count": 2034,
      "max": [
        0.99744486808776855,
        0.99946540594100952,
        0.99797815084457397
      ],
      "min": [
        -0.99671530723571777,
        -0.99954330921173096,
        -0.99987107515335083
      ],
      "type": "VEC3"
    },
    {
      "bufferView": 3,
      "componentType": 5126,
      "count": 2034,
      "max": [
        0.9999886155128479,
        0.99994957447052002,
        0.99895095825195312,
        1
      ],
      "min": [
        -0.94477689266204834,
        -0.98937195539474487,
        -0.99964046478271484,
        -1
      ],
      "type": "VEC4"
    },
    {
      "bufferView": 1,
      "componentType": 5126,
      "count": 2034,
      "max": [
        0.98814815282821655,
        0.99030840396881104
      ],
      "min": [
        0.011851847171783447,
        0.018600095063447952
      ],
      "type": "VEC2"
    },
    {
      "bufferView": 0,
      "componentType": 5125,
      "count": 2034,
      "max": [
        2033
      ],
      "min": [
        0
      ],
      "type": "SCALAR"
    }
  ],
  "asset": {
    "extras": {
      "author": "jrby1015 (https://sketchfab.com/jrby1015)",
      "license": "CC-BY-4.0 (http://creativecommons.org/licenses/by/4.0/)",
      "source": "https://sketchfab.com/models/60529c94328c4c5db623789a961825f9",
      "title": "Creamy"
    },
    "generator": "Sketchfab-3.20.7",
    "version": "2.0"
  },
  "bufferViews": [
    {
      "buffer": 0,
      "byteLength": 8136,
      "byteOffset": 0,
      "name": "floatBufferViews",
      "target": 34963
    },
    {
      "buffer": 0,
      "byteLength": 16272,
      "byteOffset": 8136,
      "byteStride": 8,
      "name": "floatBufferViews",
      "target": 34962
    },
    {
      "buffer": 0,
      "byteLength": 48816,
      "byteOffset": 24408,
      "byteStride": 12,
      "name": "floatBufferViews",
      "target": 34962
    },
    {
      "buffer": 0,
      "byteLength": 32544,
      "byteOffset": 73224,
      "byteStride": 16,
      "name": "floatBufferViews",
      "target": 34962
    }
  ],
  "buffers": [
    {
      "byteLength": 105768,
      "uri": "scene.bin"
    }
  ],
  "images": [
    {
      "uri": "textures/Creamy_normal.jpg"
    },
    {
      "uri": "textures/Creamy_diffuse.jpg"
    }
  ],
  "materials": [
    {
      "doubleSided": true,
      "emissiveFactor": [
        0,
        0,
        0
      ],
      "name": "Creamy_reduced_mat",
      "normalTexture": {
        "index": 0,
        "scale": 1,
        "texCoord": 0
      },
      "pbrMetallicRoughness": {
        "baseColorFactor": [
          1,
          1,
          1,
          1
        ],
        "baseColorTexture": {
          "index": 1,
          "texCoord": 0
        },
        "metallicFactor": 0,
        "roughnessFactor": 0.59999999999999998
      }
    }
  ],
  "meshes": [
    {
      "name": "Creamy_Mesh_reduced_Creamy_reduced_mat_0",
      "primitives": [
        {
          "attributes": {
            "NORMAL": 1,
            "POSITION": 0,
            "TANGENT": 2,
            "TEXCOORD_0": 3
          },
          "indices": 4,
          "material": 0,
          "mode": 4
        }
      ]
    }
  ],
  "nodes": [
    {
      "children": [
        1
      ],
      "name": "RootNode (gltf orientation matrix)",
      "rotation": [
        -0.70710678118654746,
        -0,
        -0,
        0.70710678118654757
      ]
    },
    {
      "children": [
        2
      ],
      "name": "RootNode (model correction matrix)"
    },
    {
      "children": [
        3
      ],
      "matrix": [
        1,
        0,
        0,
        0,
        0,
        0,
        1,
        0,
        0,
        -1,
        0,
        0,
        0,
        0,
        0,
        1
      ],
      "name": "7e7668ded5f5444296f600e6f00bbbce.fbx"
    },
    {
      "children": [
        4
      ],
      "name": "RootNode"
    },
    {
      "children": [
        5
      ],
      "name": "Creamy_Mesh_reduced"
    },
    {
      "mesh": 0,
      "name": "Creamy_Mesh_reduced_Creamy_reduced_mat_0"
    }
  ],
  "samplers": [
    {
      "magFilter": 9729,
      "minFilter": 9987,
      "wrapS": 10497,
      "wrapT": 10497
    }
  ],
  "scene": 0,
  "scenes": [
    {
      "name": "OSG_Scene",
      "nodes": [
        0
      ]
    }
  ],
  "textures": [
    {
      "sampler": 0,
      "source": 0
    },
    {
      "sampler": 0,
      "source": 1
    }
  ]
}

